#!OML:ASF E:\Mandelcareful walks\Project 1\Capture day 1\Session 1\Subject1.ASF
:FULLY-SPECIFIED
:DEGREES
157
root -23.7918 15.1684 -0.541691 -321.157 76.7868 -341.946
lowerback 32.1475 2.29474 -1.91219
upperback 7.29346 2.59301 -3.34114
thorax -8.44729 1.53443 -3.46436
lowerneck -31.8731 10.612 5.14044
upperneck 18.4453 17.4699 -17.028
head 13.7057 5.90271 -3.67483
rclavicle 7.95139e-015 -1.82882e-014
rhumerus -16.4823 -16.0059 -85.4696
rradius 21.4001
rwrist -38.022
rhand 15.4225 -38.6194
rfingers 7.12502
rthumb 40.2492 -63.7698
lclavicle 7.95139e-015 -1.82882e-014
lhumerus 134.016 -81.8761 -37.2307
lradius 49.2372
lwrist 4.16737
lhand -14.6811 -17.6084
lfingers 7.12502
lthumb 11.4723 12.0577
rfemur -39.4208 -9.94005 1.98027
rtibia 60.2715
rfoot -23.3318 -32.0972
rtoes 0.411215
lfemur -58.3432 8.32928 -24.0403
ltibia 60.3834
lfoot -19.4922 4.07559
ltoes -8.19692
158
root -23.725 15.1953 -0.539056 -322.332 76.3893 -343.145
lowerback 31.6546 2.10508 -2.14638
upperback 7.54533 2.30125 -2.93143
thorax -8.69694 1.36209 -2.99165
lowerneck -31.567 10.6654 4.80057
upperneck 17.872 17.545 -16.9272
head 13.3765 5.98229 -3.55705
rclavicle -5.84427e-014 3.04141e-014
rhumerus -16.8774 -13.1218 -85.5911
rradius 22.4367
rwrist -39.9697
rhand 15.0176 -38.7015
rfingers 7.12502
rthumb 39.8682 -63.9671
lclavicle -5.84427e-014 3.04141e-014
lhumerus 123.837 -83.4453 -26.9808
lradius 49.195
lwrist 0.401648
lhand -12.4651 -17.6213
lfingers 7.12502
lthumb 13.6088 11.9138
rfemur -39.7893 -9.89071 1.91392
rtibia 60.7229
rfoot -21.088 -31.9798
rtoes -1.587
lfemur -57.8986 8.66101 -23.9865
ltibia 60.1666
lfoot -19.63 4.30667
ltoes -8.13071
159
root -23.6656 15.2223 -0.527986 -323.074 76.0216 -343.874
lowerback 31.514 1.94275 -2.43392
upperback 7.33706 2.01296 -2.61104
thorax -8.90098 1.22027 -2.35258
lowerneck -31.2742 10.6199 4.21897
upperneck 17.6406 17.5172 -16.4027
head 13.0951 6.02823 -3.27587
rclavicle -1.47101e-014 -7.35503e-015
rhumerus -17.5146 -10.7616 -85.5455
rradius 23.5467
rwrist -41.3306
rhand 14.9889 -38.3227
rfingers 7.12502
rthumb 39.8412 -63.5964
lclavicle -1.47101e-014 -7.35503e-015
lhumerus 115.707 -84.521 -18.9431
lradius 49.5835
lwrist -0.600473
lhand -12.0461 -17.7932
lfingers 7.12502
lthumb 14.0126 11.7145
rfemur -40.1943 -9.94487 1.83102
rtibia 61.1672
rfoot -18.7089 -31.9701
rtoes -4.91991
lfemur -57.3765 8.89321 -23.9299
ltibia 59.9095
lfoot -19.8296 4.39322
ltoes -6.66209
160
root -23.614 15.2543 -0.512721 -324.041 75.6956 -344.827
lowerback 31.3566 1.7352 -2.54307
upperback 7.18465 1.73201 -2.28251
thorax -9.02153 1.08303 -1.80761
lowerneck -30.7712 10.4434 3.89302
upperneck 16.8915 17.2068 -16.2465
head 12.6173 5.97414 -3.24065
rclavicle 3.3197e-014 -1.78906e-014
rhumerus -18.0989 -8.16566 -85.6336
rradius 25.0847
rwrist -43.3229
rhand 13.2703 -38.078
rfingers 7.12502
rthumb 38.2211 -63.8167
lclavicle 3.3197e-014 -1.78906e-014
lhumerus 104.936 -85.1716 -8.30193
lradius 50.1483
lwrist -0.957475
lhand -10.7484 -18.0709
lfingers 7.12502
lthumb 15.2628 11.346
rfemur -40.5547 -9.88929 1.78478
rtibia 61.554
rfoot -18.0716 -31.1126
rtoes -5.8319
lfemur -56.8439 9.08186 -23.7543
ltibia 59.5877
lfoot -19.9969 4.63756
ltoes -6.27921
161
root -23.5589 15.2848 -0.494502 -325.135 75.2672 -345.879
lowerback 30.9674 1.62034 -2.36919
upperback 7.24659 1.66693 -2.13204
thorax -8.76762 1.0476 -1.69537
lowerneck -30.6474 10.3468 4.26075
upperneck 16.2032 16.8738 -16.5776
head 12.363 5.86796 -3.49088
rclavicle 1.53064e-014 -3.77691e-015
rhumerus -18.5454 -5.9551 -85.895
rradius 26.9218
rwrist -45.725
rhand 12.9039 -39.4514
rfingers 7.12502
rthumb 37.8751 -65.2845
lclavicle 1.53064e-014 -3.77691e-015
lhumerus 101.911 -85.1095 -5.51106
lradius 50.5934
lwrist -1.25398
lhand -10.1222 -18.5718
lfingers 7.12502
lthumb 15.8659 10.7982
rfemur -40.8764 -9.77218 1.73019
rtibia 61.7807
rfoot -18.1005 -29.5175
rtoes -5.61333
lfemur -56.261 9.38226 -23.5907
ltibia 59.2365
lfoot -20.134 4.90103
ltoes -6.83915
162
root -23.5174 15.3046 -0.468521 -325.081 74.8746 -345.93
lowerback 31.0483 1.46607 -2.51108
upperback 6.96078 1.4234 -1.81486
thorax -9.14826 0.927009 -1.17307
lowerneck -30.9463 10.5624 4.50835
upperneck 16.2537 17.1938 -16.9482
head 12.5474 5.95904 -3.58714
rclavicle -2.64384e-014 -3.04141e-014
rhumerus -19.2749 -3.6791 -85.8659
rradius 28.4601
rwrist -47.2341
rhand 12.3656 -39.4902
rfingers 7.12502
rthumb 37.3664 -65.4591
lclavicle -2.64384e-014 -3.04141e-014
lhumerus 106.596 -85.4492 -10.4305
lradius 51.1634
lwrist 1.18267
lhand -13.98 -18.0759
lfingers 7.12502
lthumb 12.1484 11.5514
rfemur -41.5672 -9.90501 1.62317
rtibia 61.899
rfoot -17.3979 -27.9485
rtoes -6.86491
lfemur -55.9659 9.60114 -23.6555
ltibia 58.9263
lfoot -20.2467 5.03234
ltoes -8.06641
163
root -23.4621 15.327 -0.443276 -325.56 74.2713 -346.191
lowerback 31.0176 1.23121 -2.45489
upperback 6.98911 1.16342 -1.62323
thorax -9.10467 0.804533 -0.888458
lowerneck -31.4429 10.6746 4.52558
upperneck 16.3916 17.3919 -17.0294
head 12.7271 5.99763 -3.56574
rclavicle -2.72335e-014 -2.46493e-014
rhumerus -19.5921 -1.52566 -86.0175
rradius 30.0741
rwrist -48.418
rhand 11.5457 -40.1927
rfingers 7.12502
rthumb 36.5909 -66.3618
lclavicle -2.72335e-014 -2.46493e-014
lhumerus 91.8691 -85.8087 4.10986
lradius 51.5929
lwrist -0.741875
lhand -14.7544 -17.305
lfingers 7.12502
lthumb 11.4016 12.365
rfemur -41.9801 -9.79113 1.47255
rtibia 61.7491
rfoot -16.8435 -26.2607
rtoes -9.32234
lfemur -55.2132 9.94591 -23.7052
ltibia 58.6657
lfoot -20.5862 5.27558
ltoes -7.39097
164
root -23.4232 15.3382 -0.409604 -325.65 73.8451 -346.354
lowerback 30.7009 1.00551 -2.27072
upperback 6.95538 0.958616 -1.38123
thorax -8.99382 0.701601 -0.636591
lowerneck -31.6642 10.6668 4.66046
upperneck 16.2072 17.34 -17.22
head 12.726 5.961 -3.66333
rclavicle 1.70955e-014 1.39149e-014
rhumerus -20.3473 0.943152 -86.1123
rradius 32.4039
rwrist -50.1887
rhand 11.7018 -38.6616
rfingers 7.12502
rthumb 36.7386 -64.7932
lclavicle 1.70955e-014 1.39149e-014
lhumerus 84.131 -85.8176 11.6614
lradius 52.1567
lwrist -2.01543
lhand -16.2492 -17.6492
lfingers 7.12502
lthumb 9.95976 12.0952
rfemur -42.7786 -9.76013 1.50018
rtibia 61.4987
rfoot -16.9051 -24.536
rtoes -11.8851
lfemur -54.9776 10.2579 -23.7442
ltibia 58.5317
lfoot -20.7154 5.47862
ltoes -6.98369
165
root -23.3865 15.344 -0.366736 -325.902 73.3446 -346.511
lowerback 30.5734 0.829149 -2.11114
upperback 6.95713 0.810242 -1.11217
thorax -8.93272 0.62759 -0.366621
lowerneck -31.5532 10.4916 4.64574
upperneck 15.6438 17.0405 -17.3918
head 12.4703 5.85721 -3.78887
rclavicle -3.1408e-014 4.79071e-014
rhumerus -21.357 3.46285 -86.1081
rradius 34.991
rwrist -52.1814
rhand 10.8907 -37.2478
rfingers 7.12502
rthumb 35.9707 -63.5715
lclavicle -3.1408e-014 4.79071e-014
lhumerus 77.6292 -85.6815 17.9939
lradius 52.7098
lwrist -3.31627
lhand -16.394 -18.5693
lfingers 7.12502
lthumb 9.82004 11.1817
rfemur -43.4363 -9.59818 1.54315
rtibia 61.0683
rfoot -17.39 -22.8432
rtoes -14.2922
lfemur -54.5679 10.7076 -23.7778
ltibia 58.4718
lfoot -20.9301 5.56673
ltoes -6.82264
166
root -23.3545 15.3392 -0.321135 -325.633 72.8099 -346.086
lowerback 30.4745 0.60606 -1.91879
upperback 6.98532 0.608964 -0.906314
thorax -8.85257 0.529549 -0.168833
lowerneck -31.4845 10.2875 4.77669
upperneck 15.3349 16.6766 -17.5334
head 12.3231 5.71389 -3.94403
rclavicle -4.8901e-014 -4.92986e-014
rhumerus -22.2251 5.66654 -86.0959
rradius 37.4909
rwrist -54.2189
rhand 10.916 -38.9738
rfingers 7.12502
rthumb 35.9946 -65.2916
lclavicle -4.8901e-014 -4.92986e-014
lhumerus 81.7743 -85.6665 13.4703
lradius 53.4742
lwrist -1.78449
lhand -19.0382 -18.1341
lfingers 7.12502
lthumb 7.26827 11.7211
rfemur -44.0822 -9.43875 1.39908
rtibia 60.5435
rfoot -18.5035 -20.6343
rtoes -14.9732
lfemur -54.1555 11.0125 -23.924
ltibia 58.5025
lfoot -21.2705 5.64273
ltoes -7.05688
167
root -23.3181 15.3249 -0.273276 -325.304 72.061 -345.68
lowerback 30.1213 0.458247 -1.6665
upperback 7.02747 0.512589 -0.785104
thorax -8.63414 0.476635 -0.137084
lowerneck -31.5456 10.18 4.91785
upperneck 15.1752 16.5058 -17.7749
head 12.2956 5.62684 -4.09291
rclavicle -5.20816e-014 -3.97569e-015
rhumerus -23.0578 7.42913 -86.0418
rradius 39.86
rwrist -55.9054
rhand 9.32522 -39.9609
rfingers 7.12502
rthumb 34.4861 -66.6354
lclavicle -5.20816e-014 -3.97569e-015
lhumerus 69.0333 -85.4968 26.0198
lradius 53.7603
lwrist -3.68179
lhand -21.1036 -18.8397
lfingers 7.12502
lthumb 5.27436 11.0747
rfemur -44.9097 -9.10082 1.15635
rtibia 59.9192
rfoot -19.6671 -18.0883
rtoes -14.1269
lfemur -53.8717 11.4381 -24.1523
ltibia 58.6381
lfoot -21.6181 5.6673
ltoes -6.99452
168
root -23.2833 15.304 -0.219634 -324.832 71.2639 -345.043
lowerback 29.8214 0.365809 -1.50211
upperback 7.06554 0.463092 -0.606234
thorax -8.44713 0.447826 -0.00883326
lowerneck -31.6071 10.1044 5.11998
upperneck 15.0587 16.429 -18.228
head 12.3319 5.55813 -4.3101
rclavicle 5.1684e-014 -5.1684e-015
rhumerus -23.7836 8.52432 -85.8213
rradius 41.7702
rwrist -56.8455
rhand 8.66101 -39.9946
rfingers 7.12502
rthumb 33.8553 -66.8103
lclavicle 5.1684e-014 -5.1684e-015
lhumerus 79.4434 -85.8678 15.2546
lradius 54.7411
lwrist -0.267606
lhand -31.5684 -17.1131
lfingers 7.12502
lthumb -4.83194 12.8118
rfemur -45.7232 -8.85287 0.898293
rtibia 59.3308
rfoot -20.772 -16.4416
rtoes -13.3183
lfemur -53.557 11.9024 -24.4477
ltibia 58.9004
lfoot -22.007 5.59107
ltoes -6.61339
169
root -23.2466 15.2733 -0.159078 -324.33 70.4025 -344.294
lowerback 29.7868 0.16772 -1.29289
upperback 6.9954 0.269311 -0.553858
thorax -8.50842 0.350535 -0.0013468
lowerneck -31.6065 10.1093 5.44931
upperneck 15.0907 16.4218 -18.6355
head 12.4286 5.52391 -4.52003
rclavicle -2.0276e-014 -3.61788e-014
rhumerus -24.3531 9.20373 -85.9121
rradius 43.1037
rwrist -57.2512
rhand 9.16044 -39.665
rfingers 7.12502
rthumb 34.3296 -66.375
lclavicle -2.0276e-014 -3.61788e-014
lhumerus 57.7186 -85.6634 36.7295
lradius 54.972
lwrist -3.00595
lhand -23.5536 -18.1696
lfingers 7.12502
lthumb 2.90847 11.7903
rfemur -46.492 -8.67799 0.620251
rtibia 58.9357
rfoot -21.9768 -16.1759
rtoes -12.2598
lfemur -53.236 12.469 -24.8403
ltibia 59.3279
lfoot -22.4349 5.5772
ltoes -6.91427
170
root -23.2103 15.2207 -0.0930054 -323.79 69.5697 -343.393
lowerback 29.7737 -0.0331878 -1.03852
upperback 7.02911 0.0951462 -0.499059
thorax -8.46297 0.264557 -0.0240735
lowerneck -31.9347 10.0545 5.53917
upperneck 15.464 16.411 -18.7434
head 12.655 5.46504 -4.58488
rclavicle -1.55052e-014 -3.10104e-014
rhumerus -24.7208 9.89595 -86.0319
rradius 44.3759
rwrist -57.8802
rhand 9.26391 -39.6024
rfingers 7.12502
rthumb 34.4279 -66.2902
lclavicle -1.55052e-014 -3.10104e-014
lhumerus 63.8755 -86.1861 29.9706
lradius 55.9362
lwrist 0.929372
lhand -24.6066 -19.1851
lfingers 7.12502
lthumb 1.89147 10.7862
rfemur -47.1238 -8.58195 0.323414
rtibia 58.8462
rfoot -23.0532 -16.9658
rtoes -11.1153
lfemur -52.9675 13.1858 -25.3242
ltibia 59.9497
lfoot -22.6674 5.52669
ltoes -7.34636
